<svg id="Capa_1" enable-background="new 0 0 512.002 512.002" height="512" viewBox="0 0 512.002 512.002" width="512" xmlns="http://www.w3.org/2000/svg"><g><g><g><g><g><path d="m52.001 464.278 7.541-10.941-.001-.001c-20.195-29.301-20.195-68.029.001-97.33l-.007-.01c-20.192-29.299-20.192-68.023 0-97.322l.007-.011-.765-2.389c-12.971-40.513 1.409-84.782 35.711-109.94l2.011-1.475 5.406-16.359c10.588-32.044 40.449-53.752 74.196-53.941l17.211-.096 7.643-8.718c17.549-20.017 48.883-19.448 65.694 1.192 33.208-14.27 71.871-3.733 93.247 25.413l7.074 9.646 32.592 10.77c22.343 7.383 37.481 28.205 37.612 51.736l.192 34.308 8.5 11.84c20.676 28.803 21.046 67.485.924 96.678l.679.985c19.787 28.708 19.787 66.654-.001 95.362l-.678.984 10.492 15.224c13.879 20.139 13.879 46.756 0 66.895-6.569 9.532-17.405 15.224-28.981 15.224h-356.486c-19.39 0-30.819-21.759-19.814-37.724z" fill="#ffd4b5"/></g></g></g><g><g><g><g><g><path clip-rule="evenodd" d="m133.234 180.562c-22.482 28.972-35.99 84.607-35.99 122.591 0 86.667 70.33 132.316 157.093 132.316s157.093-45.65 157.093-132.316c0-37.984-13.508-93.619-35.99-122.591" fill="#ffdede" fill-rule="evenodd"/></g></g></g></g><g><g><g><g><path clip-rule="evenodd" d="m254.337 341.685c-11.601 0-21.005-9.404-21.005-21.005v-12.098h42.009v12.098c.001 11.6-9.404 21.005-21.004 21.005z" fill="#b6bccf" fill-rule="evenodd"/></g></g></g></g><g><g><g><g><g><path d="m375.44 180.562c-8.264 3.959-17.544 6.03-27.237 5.723l-7.833-.24-4.65 6.222c-17.295 23.172-48.855 30.362-74.491 16.969l-6.893-3.605-6.893 3.605c-25.636 13.393-57.196 6.203-74.491-16.969l-4.65-6.222-7.832.24c-9.693.307-18.973-1.764-27.237-5.723 28.809-37.15 72.363-61.999 121.103-61.999 48.741-.001 92.295 24.849 121.104 61.999z" fill="#ffbe90"/></g></g></g></g></g></g><g><g><g><g><path clip-rule="evenodd" d="m185.862 69.07c-.781-3.095-.07-4.82-1.378-7.798-17.364-39.527-77.65-51.271-77.65-51.271s-32.134 52.343-14.77 91.87c2.814 6.405 5.017 10.755 9.645 15.769" fill="#e5ae8c" fill-rule="evenodd"/></g></g></g><g><g><g><path clip-rule="evenodd" d="m334.258 69.07c.781-3.095.07-4.82 1.378-7.798 17.364-39.527 77.65-51.271 77.65-51.271s32.135 52.343 14.771 91.87c-2.814 6.405-8.288 13.993-12.916 19.007" fill="#e5ae8c" fill-rule="evenodd"/></g></g></g></g></g><g><path d="m465.517 414.208-6.688-9.702c8.836-14.643 13.48-31.297 13.48-48.512 0-17.307-4.694-34.048-13.621-48.745 18.663-31.807 17.037-72.15-4.698-102.431l-6.642-9.251-.174-31.121c-.096-17.105-6.874-32.977-18.217-44.704 3.102-4.232 6.176-9.119 8.254-13.849 19.248-43.816-13.98-98.805-15.404-101.124-2.183-3.554-6.345-5.384-10.435-4.583-2.643.515-64.313 12.98-84.263 55.677-2.223-.806-4.481-1.523-6.771-2.147-16.75-4.567-34.608-4.004-51.004 1.501-9.496-8.813-21.931-13.881-35.075-14.119-15.315-.287-29.876 6.018-40.153 17.305-.139-.375-.293-.759-.466-1.153-19.248-43.814-82.223-56.543-84.893-57.063-4.09-.801-8.252 1.029-10.435 4.583-1.424 2.32-34.652 57.308-15.404 101.124 2.705 6.159 5.222 11.407 10.278 17.219-.268.745-.528 1.496-.777 2.251l-4.404 13.326c-36.805 27.356-52.472 74.628-39.42 118.473-9.301 15.097-14.194 32.34-14.194 50.173 0 17.244 4.576 33.938 13.289 48.672-8.71 14.732-13.285 31.423-13.285 48.664 0 17.156 4.528 33.766 13.155 48.444l-3.782 5.487c-7.207 10.455-8.016 23.933-2.11 35.174 5.904 11.241 17.46 18.225 30.158 18.225h356.485c14.866 0 28.778-7.308 37.216-19.549 16.126-23.401 16.126-54.845 0-78.245zm-57.306-392.657c7.256 14.209 22.469 49.484 10.691 76.299-1.251 2.848-3.407 6.405-5.899 9.841-3.26-1.746-6.702-3.23-10.302-4.42l-29.557-9.767-5.185-7.068c-6.288-8.574-14.098-15.901-22.942-21.648 12.011-26.47 47.928-38.998 63.194-43.237zm-306.992 76.299c-11.784-26.827 3.447-62.12 10.696-76.312 15.213 4.197 50.913 16.603 63.093 43.034-29.104.5-55.495 15.145-71.445 38.317-.742-1.459-1.493-3.1-2.344-5.039zm347.83 383.253c-4.704 6.824-12.46 10.898-20.748 10.898h-356.486c-5.322 0-9.978-2.813-12.452-7.524-2.476-4.712-2.149-10.142.871-14.524h.001l7.54-10.941c2.354-3.417 2.354-7.934-.001-11.35-17.723-25.714-17.723-60.267.001-85.98 2.361-3.426 2.343-7.958-.013-11.368-17.699-25.689-17.711-60.201-.036-85.903 1.796-2.559 2.294-5.814 1.339-8.797l-.766-2.388c-11.675-36.467 1.226-76.183 32.102-98.827l2.011-1.474c1.677-1.23 2.929-2.952 3.581-4.927l5.406-16.358c9.25-27.995 35.273-46.915 64.758-47.079l17.211-.097c2.86-.017 5.577-1.257 7.463-3.408l7.643-8.717c6.287-7.172 15.304-11.25 24.818-11.25.201 0 .403.002.605.005 9.736.177 18.848 4.609 24.997 12.16 2.822 3.464 7.599 4.639 11.702 2.872 29.1-12.502 62.505-3.4 81.235 22.139l7.075 9.646c1.229 1.677 2.951 2.929 4.926 3.581l32.592 10.77c4.549 1.503 8.732 3.685 12.45 6.41.195.157.395.306.599.447 10.875 8.255 17.622 21.232 17.702 35.439l.191 34.308c.012 2.073.667 4.092 1.876 5.776l8.5 11.84c18.162 25.302 18.489 59.529.814 85.171-2.354 3.416-2.355 7.932-.002 11.349l.681.987c17.317 25.126 17.317 58.887.001 84.01l-.679.984c-2.356 3.417-2.356 7.934-.001 11.352l10.491 15.224c11.45 16.61 11.45 38.933.002 55.544z"/><path d="m383.341 174.431c-.005-.006-.01-.012-.014-.018-32.463-41.849-79.476-65.851-128.99-65.851-49.513 0-96.527 24.002-128.99 65.852-.005.006-.009.012-.014.018-24.739 31.882-38.089 90.116-38.089 128.722 0 44.176 17.237 81.015 49.848 106.533 29.915 23.41 70.457 35.783 117.245 35.783 36.542 0 69.949-7.371 96.611-21.315 28.954-15.145 50.098-38.182 61.144-66.623 2-5.148-.553-10.942-5.701-12.941-5.142-2.001-10.941.551-12.941 5.701-18.558 47.777-69.262 75.179-139.112 75.179-67.855 0-147.093-32.034-147.093-122.316 0-33.284 10.97-81.767 29.577-110.375 7.686 2.565 15.827 3.773 23.955 3.502l2.632-.08 1.531 2.049c20.34 27.253 56.987 35.603 87.14 19.85l2.258-1.182 2.263 1.184c10.228 5.343 21.199 7.913 32.031 7.912 21.1-.001 41.661-9.754 55.1-27.758l1.535-2.055 2.62.08c8.081.249 16.166-.931 23.805-3.452 8.878 14.784 17.824 40.225 25.58 72.974 1.089 4.6 5.192 7.697 9.722 7.697.764 0 1.538-.088 2.313-.271 5.374-1.272 8.699-6.661 7.426-12.035-6.801-28.715-18.114-67.074-33.392-86.764zm-34.832 1.859-7.832-.239c-3.246-.098-6.363 1.396-8.315 4.008l-4.654 6.228c-14.438 19.343-40.445 25.268-61.842 14.09l-6.893-3.605c-1.452-.759-3.043-1.139-4.635-1.139s-3.184.38-4.635 1.139l-6.888 3.604c-21.403 11.178-47.412 5.254-61.852-14.094l-4.65-6.222c-1.953-2.612-5.028-4.108-8.315-4.008l-7.844.239c-3.228.105-6.461-.119-9.64-.653 27.911-30.084 65.051-47.074 103.823-47.074s75.911 16.99 103.823 47.073c-3.18.533-6.417.752-9.651.653z"/><path d="m244.337 358.562c0 4.502-3.66 8.165-8.16 8.165s-8.161-3.663-8.161-8.165c0-5.522-4.477-10-10-10-5.522 0-10 4.478-10 10 0 15.53 12.633 28.165 28.161 28.165 6.914 0 13.254-2.505 18.16-6.655 4.906 4.15 11.247 6.655 18.161 6.655 15.527 0 28.16-12.635 28.16-28.165 0-5.522-4.478-10-10-10s-10 4.478-10 10c0 4.502-3.661 8.165-8.161 8.165s-8.16-3.663-8.16-8.165v-8.533c12.204-4.169 21.005-15.751 21.005-29.349v-12.099c0-5.522-4.478-10-10-10h-42.01c-5.522 0-10 4.478-10 10v12.099c0 13.598 8.801 25.18 21.005 29.349zm-1.005-39.98h22.01v2.099c0 6.067-4.937 11.004-11.005 11.004s-11.005-4.936-11.005-11.004z"/><g><g><g><g><path d="m411.371 318.582c-4.24 0-8.098-2.785-9.46-6.79-1.36-3.998.011-8.574 3.374-11.142 3.239-2.474 7.726-2.718 11.225-.638 3.583 2.131 5.493 6.43 4.671 10.519-.928 4.617-5.097 8.051-9.81 8.051z"/></g></g></g></g><g><g><g><g><g><path d="m324.945 293.572c11.664-11.664 30.643-11.662 42.309.003 3.905 3.905 3.905 10.237 0 14.142s-10.237 3.905-14.142 0c-3.867-3.867-10.159-3.869-14.024-.003-3.905 3.905-10.237 3.905-14.142 0-3.906-3.905-3.906-10.237-.001-14.142z"/></g></g></g></g><g><g><g><g><path d="m187.359 293.572c3.905 3.905 3.905 10.237 0 14.142s-10.237 3.905-14.142 0c-3.866-3.866-10.157-3.864-14.024.003-3.905 3.905-10.237 3.905-14.142 0s-3.905-10.237 0-14.142c11.665-11.665 30.645-11.667 42.308-.003z"/></g></g></g></g></g></g></g></svg>